<?xml version="1.0" encoding="UTF-8"?>
<svg id="uuid-d06f621e-f390-43c3-891a-6682dd2c42a7" data-name="Book" xmlns="http://www.w3.org/2000/svg" viewBox="0 0 560 640">
  <defs>
    <style>
      .uuid-2fac7202-ecc3-4709-971c-3006b0400032 {
        fill: #fbbc05;
      }

      .uuid-c15cfa59-d90f-422f-9df7-dbf0329b353d {
        fill: #ea4335;
      }

      .uuid-fd22e753-2e80-4a21-805f-b72e2ef3a698 {
        fill: #4285f4;
      }
    </style>
  </defs>
  <path class="uuid-2fac7202-ecc3-4709-971c-3006b0400032" d="M190,200h220c16.62,0,30-13.38,30-30s-13.38-30-30-30H190c-16.5,0-30,13.5-30,30s13.5,30,30,30Z"/>
  <path class="uuid-fd22e753-2e80-4a21-805f-b72e2ef3a698" d="M560,440V60c0-33.09-26.88-60-60-60H100C44.86,0,0,44.85,0,100v440c0,55.12,44.86,100,100,100h430c16.56,0,30-13.44,30-30s-13.44-30-30-30h-10v-83.69c23.25-8.31,40-30.31,40-56.31Zm-100,140H100c-22.05,0-40-17.93-40-40s17.95-40,40-40H460v80Zm40-140H100c-14.23,0-27.75,2.97-40,8.36V100c0-22.07,17.95-40,40-40H500V440Z"/>
  <path class="uuid-c15cfa59-d90f-422f-9df7-dbf0329b353d" d="M190,300h220c16.62,0,30-13.38,30-30s-13.38-30-30-30H190c-16.5,0-30,13.5-30,30s13.5,30,30,30Z"/>
</svg>