<?xml version="1.0" encoding="UTF-8"?>
<svg id="uuid-5bcea2f5-3f4c-4720-8791-3ced299f342e" data-name="Feed" xmlns="http://www.w3.org/2000/svg" viewBox="0 0 576 640">
  <defs>
    <style>
      .uuid-d233c48c-e591-4c3a-a091-2ecc844927ac {
        fill: #fbbc05;
      }

      .uuid-bdde1208-c2df-44db-8dc8-1ec4c26172cf {
        fill: #ea4335;
      }

      .uuid-5ecef929-832c-4f82-8056-c7bf97faf0a0 {
        fill: #4285f4;
      }
    </style>
  </defs>
  <path class="uuid-5ecef929-832c-4f82-8056-c7bf97faf0a0" d="M528,368h-48V176c0-44.11-35.9-80-80-80H80C35.89,96,0,131.89,0,176v48c0,26.51,21.49,48,48,48h32v-48H48v-48c0-17.62,14.38-32,32-32s32,14.38,32,32V464c0,44.1,35.9,80,80,80H458.6c64.7,0,117.4-52.7,117.4-117.4v-10.6c0-26.5-21.5-48-48-48Zm-304,32v64c0,17.62-14.38,32-32,32s-32-14.38-32-32V176c0-11.39-2.47-22.18-6.78-32h246.78c17.6,0,32,14.4,32,32v192h-176c-17.7,0-32,14.3-32,32Zm304,26.6c0,38.3-31.1,69.4-69.4,69.4h-193.4c4.3-9.8,6.8-20.6,6.8-32v-48h256v10.6Z"/>
  <path class="uuid-bdde1208-c2df-44db-8dc8-1ec4c26172cf" d="M362,272H230c-12.1,0-22,10.8-22,24s9.9,24,22,24h132c12.19,0,22-10.7,22-24s-9.81-24-22-24Z"/>
  <path class="uuid-d233c48c-e591-4c3a-a091-2ecc844927ac" d="M362,192H230c-12.1,0-22,10.8-22,24s9.9,24,22,24h132c12.19,0,22-10.7,22-24s-9.81-24-22-24Z"/>
</svg>