<?xml version="1.0" encoding="UTF-8"?>
<svg id="uuid-b80ddb87-784a-4c15-98be-2ea77008c1cf" data-name="File" xmlns="http://www.w3.org/2000/svg" viewBox="0 0 480 640">
  <defs>
    <style>
      .uuid-75c34946-a050-4e0f-ab9e-dba1682cbf3e {
        fill: #fbbc05;
      }

      .uuid-a0c1544c-3540-4a66-b918-f2a2cbe29fca {
        fill: #ea4335;
      }

      .uuid-f3008ee8-0d13-4155-b859-dfdcd3f586e4 {
        fill: #4285f4;
      }
    </style>
  </defs>
  <path class="uuid-75c34946-a050-4e0f-ab9e-dba1682cbf3e" d="M220,300c-66.28,0-120,53.72-120,120s53.72,120,120,120,120-53.73,120-120h-120v-120Z"/>
  <path class="uuid-f3008ee8-0d13-4155-b859-dfdcd3f586e4" d="M456.62,116.73L363.34,23.42c-15.09-15-35.46-23.42-56.59-23.42H80C35.81,0,0,35.81,0,80v480c0,44.17,35.82,80,80.01,80H400c44,0,80-36,80-80V173.25c0-21.12-8.38-41.5-23.38-56.52Zm-56.62,463.27H80.03c-11.05,0-20-8.96-20-20l-.03-479.84c0-11.04,8.96-20,20-20h200v99.84c0,22.09,17.91,40,40,40h98.88v360h1.12c0,11.04-8.96,20-20,20Z"/>
  <path class="uuid-a0c1544c-3540-4a66-b918-f2a2cbe29fca" d="M260,260v120h120c0-66.28-53.72-120-120-120Z"/>
</svg>