<?xml version="1.0" encoding="UTF-8"?>
<svg id="uuid-1d4078f2-5643-414d-aec2-83cef8f71b01" data-name="images" xmlns="http://www.w3.org/2000/svg" viewBox="0 0 480 640">
  <defs>
    <style>
      .uuid-8a635e3d-25ef-4c8f-b722-9aafd5a67201 {
        fill: #fbbc05;
      }

      .uuid-bba7e38e-e5ae-4092-97bd-b6edc25a24c8 {
        fill: #4285f4;
      }

      .uuid-5ff27720-bdd6-4979-9232-03d7eb7ac039 {
        fill: #34a853;
      }
    </style>
  </defs>
  <circle class="uuid-8a635e3d-25ef-4c8f-b722-9aafd5a67201" cx="160" cy="320" r="40"/>
  <path class="uuid-5ff27720-bdd6-4979-9232-03d7eb7ac039" d="M282.59,372.79c-2.09-4.92-7.59-7.79-13.47-7.79s-11.31,2.92-14.56,7.79l-49.56,74.46-14.6-21.91c-3.27-4.96-8.78-7.84-14.52-7.84s-11.32,2.92-14.56,7.79l-58.34,87.5c-3.58,5.37-3.91,12.28-.87,17.96,3.01,5.75,8.94,9.24,14.27,9.24h245c6.45,0,12.38-3.55,15.43-9.24,3.04-5.69,2.71-12.59-.87-17.96l-93.34-140Z"/>
  <path class="uuid-bba7e38e-e5ae-4092-97bd-b6edc25a24c8" d="M456.62,116.73L363.34,23.42c-15.09-15-35.46-23.42-56.59-23.42H80C35.81,0,0,35.81,0,80v480c0,44.17,35.82,80,80.01,80H400c44,0,80-36,80-80V173.25c0-21.12-8.38-41.5-23.38-56.52Zm-56.62,463.27H80.03c-11.05,0-20-8.96-20-20l-.03-479.84c0-11.04,8.96-20,20-20h200v99.84c0,22.09,17.91,40,40,40h98.87v360h1.13c0,11.04-8.96,20-20,20Z"/>
</svg>