<?xml version="1.0" encoding="UTF-8"?>
<svg id="uuid-e3f824ce-1f96-4af8-8c58-07231eedfb1d" data-name="Maps" xmlns="http://www.w3.org/2000/svg" viewBox="0 0 480 640">
  <defs>
    <style>
      .uuid-2d195796-c0cd-4dbb-abe3-d83410602e72 {
        fill: #ea4335;
      }

      .uuid-797517fb-3809-4454-b5ec-c39ac06a854a {
        fill: #4285f4;
      }
    </style>
  </defs>
  <path class="uuid-797517fb-3809-4454-b5ec-c39ac06a854a" d="M456.62,116.73L363.34,23.42c-15.09-15-35.46-23.42-56.59-23.42H80C35.81,0,0,35.81,0,80v480c0,44.17,35.82,80,80.01,80H400c44,0,80-36,80-80V173.25c0-21.12-8.38-41.5-23.38-56.52Zm-56.62,463.27H80.03c-11.05,0-20-8.96-20-20l-.03-479.84c0-11.04,8.96-20,20-20h200v99.84c0,22.09,17.91,40,40,40h98.87v360h1.13c0,11.04-8.96,20-20,20Z"/>
  <path class="uuid-2d195796-c0cd-4dbb-abe3-d83410602e72" d="M147.75,390.75c8.67,22.5,23.58,47.67,38.92,70.42,15.08,22.42,30.58,42.5,41,54.75,6.42,8.75,18.25,8.75,24.67,0,10.42-12.25,25.92-32.33,41-54.75l.33-.5c3.75-6.42,7.58-11.5,11.25-17.33,2.75-4.42,5.42-8.92,8-14.08l.08,.58c9.83-16.92,18.08-34.75,22.08-49.33,3.38-8.49,4.88-16.49,4.91-24.32-.26-55-44.91-99.51-100-99.51-51.33,0-93.67,38.7-99.34,88.5-.42,3.75-.67,7.58-.67,11.5,0,8.58,2.17,18.33,5.08,28.83,1.33,1.75,2,3.5,2.67,5.25Zm92.25-74.84c18.42,0,33.33,15.68,33.33,33.33,0,19.17-14.92,33.33-33.33,33.33s-33.33-14.17-33.33-33.33c0-17.66,14.92-33.33,33.33-33.33Z"/>
</svg>