<?xml version="1.0" encoding="UTF-8"?>
<svg id="uuid-9947c757-da0c-4bf5-9c68-359e12014aee" data-name="Post" xmlns="http://www.w3.org/2000/svg" viewBox="0 0 480 640">
  <defs>
    <style>
      .uuid-ab50e6b6-3ab6-46da-9872-d0799100acda {
        fill: #fbbc05;
      }

      .uuid-c0ed049b-608b-4b79-bf27-ad8770e5d3e1 {
        fill: #ea4335;
      }

      .uuid-2e1cc12c-4ea6-4809-9094-f07b122a16d1 {
        fill: #4285f4;
      }

      .uuid-99694945-0f0d-4348-8e3a-dd126451a550 {
        fill: #34a853;
      }
    </style>
  </defs>
  <path class="uuid-2e1cc12c-4ea6-4809-9094-f07b122a16d1" d="M400,0H80C35.81,0,0,35.81,0,80v480c0,44.19,35.81,80,80,80H400c44.19,0,80-35.81,80-80V80C480,35.81,444.12,0,400,0Zm20,560c0,11.03-8.97,20-20,20H80c-11.03,0-20-8.97-20-20V80c0-11.03,8.97-20,20-20H400c11.03,0,20,8.97,20,20v480Z"/>
  <path class="uuid-99694945-0f0d-4348-8e3a-dd126451a550" d="M208.46,400h-60c-16.5,0-30,13.5-30,30s13.44,30,30,30h60c16.56,0,30-13.44,30-30s-13.37-30-30-30Z"/>
  <path class="uuid-c0ed049b-608b-4b79-bf27-ad8770e5d3e1" d="M328.46,280H148.46c-16.5,0-30,13.5-30,30s13.5,30,30,30h180c16.62,0,30-13.37,30-30s-13.38-30-30-30Z"/>
  <path class="uuid-ab50e6b6-3ab6-46da-9872-d0799100acda" d="M328.46,160H148.46c-16.5,0-30,13.5-30,30s13.5,30,30,30h180c16.62,0,30-13.37,30-30s-13.38-30-30-30Z"/>
</svg>