<?xml version="1.0" encoding="UTF-8"?>
<svg id="uuid-f78cfe0c-ecaa-4ef0-a3a8-cb74c6ae8a3d" data-name="Profile" xmlns="http://www.w3.org/2000/svg" viewBox="0 0 640 640">
  <defs>
    <style>
      .uuid-e3d8d667-5c9b-4a71-b88c-90d5437b1536 {
        fill: #fbbc05;
      }

      .uuid-da8e00fa-f13d-424b-b1a9-77153a7f6dad {
        fill: #ea4335;
      }

      .uuid-b37cb9f1-9c4b-4549-960e-e96b4156e6c1 {
        fill: #4285f4;
      }

      .uuid-887abb9f-9441-4696-83e4-98a11b50f8f7 {
        fill: #34a853;
      }
    </style>
  </defs>
  <circle class="uuid-e3d8d667-5c9b-4a71-b88c-90d5437b1536" cx="240" cy="256" r="64"/>
  <path class="uuid-887abb9f-9441-4696-83e4-98a11b50f8f7" d="M272,352h-64c-44.2,0-80,35.8-80,80,0,8.8,7.2,16,16,16h192c8.84,0,16-7.16,16-16,0-44.2-35.8-80-80-80Z"/>
  <path class="uuid-da8e00fa-f13d-424b-b1a9-77153a7f6dad" d="M496,296h-96c-13.25,0-24,10.75-24,24s10.75,24,24,24h96c13.25,0,24-10.75,24-24s-10.7-24-24-24Z"/>
  <path class="uuid-da8e00fa-f13d-424b-b1a9-77153a7f6dad" d="M496,216h-96c-13.25,0-24,10.75-24,24s10.75,24,24,24h96c13.25,0,24-10.75,24-24s-10.7-24-24-24Z"/>
  <path class="uuid-b37cb9f1-9c4b-4549-960e-e96b4156e6c1" d="M0,159.78V479.78C0,523.97,35.81,559.78,80,559.78h480c44.19,0,80-35.81,80-80V159.78c0-44.19-35.81-80-80-80H80C35.81,79.78,0,115.66,0,159.78Zm560-20c11.03,0,20,8.97,20,20V479.78c0,11.03-8.97,20-20,20H80c-11.03,0-20-8.97-20-20V159.78c0-11.03,8.97-20,20-20h480Z"/>
</svg>