<?xml version="1.0" encoding="UTF-8"?>
<svg id="uuid-31208eac-9939-4aa9-9708-e8faaf64d8cd" data-name="Sildeshow" xmlns="http://www.w3.org/2000/svg" viewBox="0 0 600 640">
  <defs>
    <style>
      .uuid-bd286bb3-6d9d-4bf4-8943-89ef5000a130 {
        fill: #fbbc05;
      }

      .uuid-8adf4596-08e2-4d79-bebf-79fc1021d208 {
        fill: #4285f4;
      }

      .uuid-2e41e1a4-0cfa-439a-82a6-d1fce6ad727f {
        fill: #34a853;
      }
    </style>
  </defs>
  <path class="uuid-8adf4596-08e2-4d79-bebf-79fc1021d208" d="M517.24,20H82.76C37.05,20,0,55.83,0,100v15.26h0v412.74H0v12c0,44.17,37.05,80,82.76,80h434.48c45.52,0,82.76-36,82.76-80V100c0-44-37.24-80-82.76-80Zm19.53,100v420h1.16c0,11.04-9.26,20-20.69,20H82.78c-11.43,0-20.69-8.96-20.69-20v-20s0-400,0-400v-20c0-11.04,9.26-20,20.69-20h434.46c11.43,0,20.69,8.96,20.69,20h-1.16v20Z"/>
  <rect class="uuid-8adf4596-08e2-4d79-bebf-79fc1021d208" x="56.7" y="420.02" width="486.78" height="59.95"/>
  <circle class="uuid-bd286bb3-6d9d-4bf4-8943-89ef5000a130" cx="220" cy="159.42" r="40"/>
  <path class="uuid-2e41e1a4-0cfa-439a-82a6-d1fce6ad727f" d="M343.32,208.02c-2.1-5.06-7.63-8.02-13.52-8.02s-11.36,3.01-14.62,8.02l-49.77,76.58-14.66-22.54c-3.29-5.1-8.81-8.06-14.59-8.06s-11.36,3.01-14.62,8.02l-58.58,90c-3.6,5.52-3.93,12.63-.87,18.48,3.02,5.91,8.98,9.51,14.33,9.51h246.02c6.48,0,12.44-3.66,15.49-9.51,3.06-5.85,2.72-12.95-.87-18.48l-93.73-144Z"/>
</svg>