<?xml version="1.0" encoding="UTF-8"?>
<svg id="uuid-a82dd2a2-d5fb-4ebe-9c80-726525a4b124" data-name="Study" xmlns="http://www.w3.org/2000/svg" viewBox="0 0 640 640">
  <defs>
    <style>
      .uuid-cccde4df-097c-448e-ac43-a860f2a246b1 {
        fill: #ea4335;
      }

      .uuid-9018a968-454d-454e-97f9-952108a90994 {
        fill: #4285f4;
      }
    </style>
  </defs>
  <path class="uuid-9018a968-454d-454e-97f9-952108a90994" d="M452.28,342.5l11.7,112.2c0,10.6-49.5,41.3-144,41.3s-144-30.72-144-41.34l11.72-112.1-46.08-16.5-13.51,126.1c-.13,61.14,96.47,91.84,191.87,91.84s192-30.69,191.9-91.81l-13.51-126.1-46.09,16.41Z"/>
  <path class="uuid-cccde4df-097c-448e-ac43-a860f2a246b1" d="M623.1,200.9L340.4,99.7c-6.1-2.47-13.2-3.7-20.4-3.7s-14.3,1.23-21.2,3.68L16.05,200.9c-9.61,3.5-16.05,12.7-16.05,23.1s6.44,19.65,16.05,23.09l60.02,21.51c-11.89,15.8-20.26,34.16-24.55,53.95-11.47,4.85-19.52,16.25-19.52,29.45,0,9.95,4.81,18.49,11.94,24.36l-24.83,149c-1.63,9.74,5.89,18.64,15.78,18.64h58.22c9.89,0,17.41-8.88,15.78-18.63l-24.83-149c7.13-5.87,11.94-15.27,11.94-24.37,0-10.29-5.17-19.03-12.72-24.89,4.25-17.76,12.88-33.82,24.94-47.03l190.6,68.23c6.88,2.49,13.98,3.69,21.18,3.69s14.35-1.23,21.21-3.68l282.7-101.2c9.69-3.52,16.09-12.72,16.09-23.12s-6.4-19.6-16.9-23.1Zm-298,102.2c-4.43,1.58-8.2,.68-10.09,0l-139.51-49.91,149.2-45.92c8.45-2.59,13.16-11.55,10.57-20.02-2.59-8.44-11.57-13.27-20.01-10.55l-190.06,58.49-31.24-11.2,220.1-79.12c4.43-1.58,8.2-.68,10.09,0l221.85,79.13-220.9,79.1Z"/>
</svg>