<?xml version="1.0" encoding="UTF-8"?>
<svg id="uuid-01132fa2-4dc4-4e17-a244-8afad8957002" data-name="Teach" xmlns="http://www.w3.org/2000/svg" viewBox="0 0 640 640">
  <defs>
    <style>
      .uuid-2b25850d-ca83-4e47-ab82-04fef4975a1c {
        fill: #fbbc05;
      }

      .uuid-e07659da-d8a6-4b58-9697-2d1d9ae04b90 {
        fill: #ea4335;
      }

      .uuid-76f4eed0-95c6-4607-855a-7760ac892906 {
        fill: #4285f4;
      }
    </style>
  </defs>
  <path class="uuid-76f4eed0-95c6-4607-855a-7760ac892906" d="M584,64H216c-30.9,0-56,25.12-56,56v24c0,13.25,10.75,24,24,24s24-10.75,24-24v-24c0-4.41,3.59-8,8-8h368c4.41,0,8,3.59,8,8V424c0,4.41-3.59,8-8,8h-56v-32c0-17.67-14.33-32-32-32h-80c-17.67,0-32,14.33-32,32v32h-32c-13.25,0-24,10.75-24,24s10.8,24,24,24h232c30.88,0,56-25.12,56-56V120c0-30.88-25.1-56-56-56Z"/>
  <path class="uuid-2b25850d-ca83-4e47-ab82-04fef4975a1c" d="M160,384c53.02,0,96-42.98,96-96s-42.98-96-96-96-96,42.1-96,96,42.1,96,96,96Zm0-144c26.47,0,48,21.53,48,48s-21.5,48-48,48-48-21.5-48-48,21.5-48,48-48Z"/>
  <path class="uuid-e07659da-d8a6-4b58-9697-2d1d9ae04b90" d="M192,416h-64C57.31,416,0,473.3,0,544c0,17.67,14.33,32,32,32H288c17.67,0,32-14.33,32-32,0-70.7-57.3-128-128-128Zm-142.39,112c7.43-36.5,39.76-64,78.39-64h64c38.63,0,70.96,27.53,78.39,64H49.61Z"/>
</svg>