<?xml version="1.0" encoding="utf-8"?>
<!-- Generator: Adobe Illustrator 26.0.2, SVG Export Plug-In . SVG Version: 6.00 Build 0)  -->
<svg version="1.0" id="Layer_1" xmlns="http://www.w3.org/2000/svg" xmlns:xlink="http://www.w3.org/1999/xlink" x="0px" y="0px"
	 viewBox="0 0 512 522.43" style="enable-background:new 0 0 512 522.43;" xml:space="preserve">
<style type="text/css">
	.st0{fill:#E03F2C;}
	.st1{fill:#2DA14C;}
	.st2{fill:#3B7CEA;}
	.st3{fill:#EFB402;}
</style>
<g id="_x38_qMwSq_00000047747449573372761250000008579284399784949165_">
	<g>
		<path class="st0" d="M28,144.53c2.94-8.05,7.58-15.2,12.14-22.35c28.6-44.87,67.09-78.42,115.76-100.01
			C197.64,3.65,241.38-2.97,286.82,1.2c36.71,3.37,71.09,14.06,103.01,32.53c15.71,9.09,30.19,19.86,43.68,32.01
			c2.1,1.89,2.02,2.95,0.08,4.88c-22.95,22.84-45.84,45.75-68.69,68.69c-1.86,1.87-2.87,1.97-5,0.05
			c-23.62-21.35-51.35-33.49-83.06-36.53c-32.58-3.13-63.22,3.29-91.52,19.63c-26.73,15.43-47.23,37.09-61.74,64.39
			c-4,7.52-6.88,15.51-10.35,23.25c-6.99-5.46-13.95-10.95-20.97-16.38c-15.68-12.13-31.33-24.31-47.12-36.29
			C39.44,153.11,34.35,147.97,28,144.53z"/>
		<path class="st1" d="M433.97,459.21c-8.54,8.76-18.36,15.95-28.53,22.65c-32.1,21.16-67.55,33.17-105.51,38.07
			c-34.78,4.49-69.3,3.1-103.37-5.61c-30.26-7.73-58.26-20.5-83.9-38.34c-34.82-24.23-62.23-55.08-82.21-92.51
			c-0.97-1.81-2.41-3.47-2.44-5.7c2.14-0.79,3.56-2.55,5.33-3.81c12.07-8.65,23.49-18.14,35.28-27.15
			c14.94-11.43,29.75-23.04,44.62-34.57c4.9,12.15,9.96,24.22,17.26,35.2c26.43,39.77,62.7,64.83,110.32,71.28
			c38.28,5.19,74.69-1.45,107.91-22.22c1.11-0.69,2.28-1.29,3.43-1.93c0.14,1.35,1.2,1.87,2.16,2.59c5.2,3.9,10.37,7.85,15.5,11.83
			c15.36,11.93,30.71,23.88,46.04,35.86C421.92,449.59,427.93,454.42,433.97,459.21z"/>
		<path class="st2" d="M433.97,459.21c-6.04-4.79-12.05-9.62-18.13-14.37c-15.33-11.97-30.68-23.92-46.04-35.86
			c-5.13-3.99-10.3-7.93-15.5-11.83c-0.96-0.72-2.02-1.23-2.16-2.59c10.67-8.12,20.66-16.91,28.71-27.76
			c10.95-14.76,18.31-31.08,22.07-49.07c0.59-2.83,0.08-3.72-2.88-3.71c-44.72,0.09-89.44,0.08-134.15,0.19
			c-3.22,0.01-4.88-0.28-4.86-4.34c0.19-31.21,0.14-62.42,0.05-93.62c-0.01-2.94,0.58-4.05,3.88-4.05
			c79.47,0.1,158.94,0.09,238.41-0.01c3.13,0,3.91,1.16,4.37,3.92c4.93,29.42,5.52,58.91,2.04,88.53
			c-3.94,33.55-13.36,65.4-29.39,95.2c-11.77,21.88-26.72,41.35-44.81,58.39C435.14,458.64,434.51,458.88,433.97,459.21z"/>
		<path class="st3" d="M113.23,312.24c-14.87,11.53-29.67,23.14-44.62,34.57c-11.79,9.01-23.21,18.5-35.28,27.15
			c-1.77,1.27-3.19,3.03-5.33,3.81c-4.77-6.81-7.47-14.62-10.43-22.25c-10.05-25.94-15.77-52.8-17.23-80.63
			c-1.31-25.02,0.96-49.6,6.73-73.99c4.27-18.04,10.48-35.32,18.26-52.08c0.71-1.52,1.27-3.17,2.64-4.29
			c6.36,3.44,11.44,8.58,17.14,12.9c15.79,11.98,31.44,24.16,47.12,36.29c7.02,5.43,13.98,10.92,20.97,16.38
			c-1.73,7.77-4.2,15.33-5.61,23.21c-2.78,15.58-3.18,31.14-1.36,46.82C107.53,291.07,110.35,301.65,113.23,312.24z"/>
	</g>
</g>
<g>
</g>
<g>
</g>
<g>
</g>
<g>
</g>
<g>
</g>
<g>
</g>
<g>
</g>
<g>
</g>
<g>
</g>
<g>
</g>
<g>
</g>
<g>
</g>
<g>
</g>
<g>
</g>
<g>
</g>
</svg>
