<?xml version="1.0" encoding="utf-8"?>
<!-- Generator: Adobe Illustrator 26.3.1, SVG Export Plug-In . SVG Version: 6.00 Build 0)  -->
<svg version="1.0" id="Layer_1" xmlns="http://www.w3.org/2000/svg" xmlns:xlink="http://www.w3.org/1999/xlink" x="0px" y="0px"
	 viewBox="0 0 448 448" style="enable-background:new 0 0 448 448;" xml:space="preserve">
<style type="text/css">
	.st0{fill:var(--cl-base);}
	.st1{fill:#EA4335;}
	.st2{fill:#4285F4;}
	.st3{fill:#FBBC05;}
</style>
<g>
	<path class="st0" d="M88,0H40C17.9,0,0,17.9,0,40v48c0,22.1,17.9,40,40,40h48c22.1,0,40-17.9,40-40V40C128,17.9,110.1,0,88,0z"/>
	<path class="cl-change cl2" d="M248,0h-48c-22.1,0-40,17.9-40,40v48c0,22.1,17.9,40,40,40h48c22.1,0,40-17.9,40-40V40C288,17.9,270.1,0,248,0
		z"/>
	<path class="st1" d="M88,160H40c-22.1,0-40,17.9-40,40v48c0,22.1,17.9,40,40,40h48c22.1,0,40-17.9,40-40v-48
		C128,177.9,110.1,160,88,160z"/>
	<path class="st0" d="M88,320H40c-22.1,0-40,17.9-40,40v48c0,22.1,17.9,40,40,40h48c22.1,0,40-17.9,40-40v-48
		C128,337.9,110.1,320,88,320z"/>
	<path class="cl-change cl8" d="M248,320h-48c-22.1,0-40,17.9-40,40v48c0,22.1,17.9,40,40,40h48c22.1,0,40-17.9,40-40v-48
		C288,337.9,270.1,320,248,320z"/>
	<path class="st0" d="M408,320h-48c-22.1,0-40,17.9-40,40v48c0,22.1,17.9,40,40,40h48c22.1,0,40-17.9,40-40v-48
		C448,337.9,430.1,320,408,320z"/>
	<path class="st0" d="M248,160h-48c-22.1,0-40,17.9-40,40v48c0,22.1,17.9,40,40,40h48c22.1,0,40-17.9,40-40v-48
		C288,177.9,270.1,160,248,160z"/>
	<path class="st0" d="M408,0h-48c-22.1,0-40,17.9-40,40v48c0,22.1,17.9,40,40,40h48c22.1,0,40-17.9,40-40V40C448,17.9,430.1,0,408,0
		z"/>
	<path class="st3" d="M408,160h-48c-22.1,0-40,17.9-40,40v48c0,22.1,17.9,40,40,40h48c22.1,0,40-17.9,40-40v-48
		C448,177.9,430.1,160,408,160z"/>
</g>
</svg>
